<?xml version="1.0" encoding="UTF-8"?>
<svg version="1.1" xmlns="http://www.w3.org/2000/svg" width="500" height="500">
<path d="M0 0 C4.70079534 3.07194833 8.66613415 6.65947587 12.5703125 10.6796875 C13.18390625 11.28425781 13.7975 11.88882813 14.4296875 12.51171875 C22.21279717 20.70540531 27.32747626 31.34997208 32.66577148 41.21313477 C42.84143391 60.76559864 42.84143391 60.76559864 59.0703125 75.1171875 C65.21775803 76.50036274 70.18706565 76.21730285 75.6796875 73.125 C81.72376934 68.50452421 84.38725141 62.00392648 85.38671875 54.63671875 C85.9721857 45.20696389 84.71511162 37.17261551 80.5703125 28.6796875 C80.24546875 27.95136719 79.920625 27.22304687 79.5859375 26.47265625 C78.11057637 23.8680764 76.36378996 23.58919179 73.5703125 22.6796875 C72.80460938 22.32648438 72.03890625 21.97328125 71.25 21.609375 C68.20750291 20.55381478 66.19447026 20.59285024 63.0078125 20.9296875 C62.07839844 21.01734375 61.14898437 21.105 60.19140625 21.1953125 C57.612539 21.67188409 55.86090544 22.44813439 53.5703125 23.6796875 C50.2578125 24.4921875 50.2578125 24.4921875 46.5703125 23.6796875 C42.59286551 19.29985288 40.06705133 14.5735043 38.5703125 8.8671875 C39.91369985 4.58514034 42.09004666 3.34457403 45.8203125 1.0390625 C56.63150187 -4.30510497 68.51220246 -5.57385175 80.2578125 -2.2890625 C90.82230834 2.56198151 97.3304789 11.07219163 101.5703125 21.6796875 C104.39101904 30.37010028 105.03465016 38.58709856 104.9453125 47.6796875 C104.95691406 48.86046875 104.96851563 50.04125 104.98046875 51.2578125 C104.93316677 65.57454361 101.36860343 80.37817572 91.33203125 91.15234375 C81.24817091 99.89467057 70.57536336 101.54031587 57.5703125 100.6796875 C44.31724914 98.51332137 34.15260123 90.04156492 26.2421875 79.609375 C20.84686751 71.97991802 16.44876379 63.85984245 12.0703125 55.6171875 C1.74724477 35.95891464 1.74724477 35.95891464 -14.8046875 21.7421875 C-20.04324728 20.20674756 -24.33744705 20.35002411 -29.3828125 22.51953125 C-35.27354647 26.11800135 -37.93132567 32.16563542 -40.046875 38.5390625 C-42.05013082 49.74094196 -40.51529897 60.11658376 -34.4296875 69.6796875 C-34.4296875 70.3396875 -34.4296875 70.9996875 -34.4296875 71.6796875 C-33.7078125 71.9684375 -32.9859375 72.2571875 -32.2421875 72.5546875 C-30.50991204 73.24759768 -28.79490638 73.98849994 -27.1171875 74.8046875 C-21.83412151 76.5247555 -17.3887888 76.23871673 -12.3671875 74.1171875 C-8.2274515 72.47584686 -5.73216063 71.95869825 -1.4296875 73.6796875 C2.22959542 77.93450077 5.22641075 82.2145511 6.01171875 87.84375 C5.5703125 90.6796875 5.5703125 90.6796875 3.8828125 92.47265625 C-7.09863725 99.09491565 -18.07711163 102.79055754 -31.03515625 100.1484375 C-41.53108398 96.82442596 -48.88051312 91.18258978 -54.19921875 81.4375 C-62.10909263 64.15509916 -63.05050004 42.87854208 -57.4296875 24.6796875 C-54.10823482 16.31878937 -49.9890129 8.08198729 -42.6796875 2.5546875 C-42.06609375 2.07773438 -41.4525 1.60078125 -40.8203125 1.109375 C-29.27879181 -5.79290698 -11.9664793 -6.03437845 0 0 Z " fill="#F9F9F9" transform="translate(228.4296875,192.3203125)"/>
<path d="M0 0 C4.70079534 3.07194833 8.66613415 6.65947587 12.5703125 10.6796875 C13.18390625 11.28425781 13.7975 11.88882813 14.4296875 12.51171875 C22.21279717 20.70540531 27.32747626 31.34997208 32.66577148 41.21313477 C42.84143391 60.76559864 42.84143391 60.76559864 59.0703125 75.1171875 C65.21775803 76.50036274 70.18706565 76.21730285 75.6796875 73.125 C81.72376934 68.50452421 84.38725141 62.00392648 85.38671875 54.63671875 C85.9721857 45.20696389 84.71511162 37.17261551 80.5703125 28.6796875 C80.24546875 27.95136719 79.920625 27.22304687 79.5859375 26.47265625 C78.11057637 23.8680764 76.36378996 23.58919179 73.5703125 22.6796875 C72.80460938 22.32648438 72.03890625 21.97328125 71.25 21.609375 C68.20750291 20.55381478 66.19447026 20.59285024 63.0078125 20.9296875 C62.07839844 21.01734375 61.14898437 21.105 60.19140625 21.1953125 C57.612539 21.67188409 55.86090544 22.44813439 53.5703125 23.6796875 C50.2578125 24.4921875 50.2578125 24.4921875 46.5703125 23.6796875 C42.59286551 19.29985288 40.06705133 14.5735043 38.5703125 8.8671875 C39.91369985 4.58514034 42.09004666 3.34457403 45.8203125 1.0390625 C56.63150187 -4.30510497 68.51220246 -5.57385175 80.2578125 -2.2890625 C90.82230834 2.56198151 97.3304789 11.07219163 101.5703125 21.6796875 C104.39101904 30.37010028 105.03465016 38.58709856 104.9453125 47.6796875 C104.95691406 48.86046875 104.96851563 50.04125 104.98046875 51.2578125 C104.93316677 65.57454361 101.36860343 80.37817572 91.33203125 91.15234375 C81.24817091 99.89467057 70.57536336 101.54031587 57.5703125 100.6796875 C44.31724914 98.51332137 34.15260123 90.04156492 26.2421875 79.609375 C20.84686751 71.97991802 16.44876379 63.85984245 12.0703125 55.6171875 C1.74724477 35.95891464 1.74724477 35.95891464 -14.8046875 21.7421875 C-20.04324728 20.20674756 -24.33744705 20.35002411 -29.3828125 22.51953125 C-35.27354647 26.11800135 -37.93132567 32.16563542 -40.046875 38.5390625 C-42.05013082 49.74094196 -40.51529897 60.11658376 -34.4296875 69.6796875 C-34.4296875 70.3396875 -34.4296875 70.9996875 -34.4296875 71.6796875 C-33.7078125 71.9684375 -32.9859375 72.2571875 -32.2421875 72.5546875 C-30.50991204 73.24759768 -28.79490638 73.98849994 -27.1171875 74.8046875 C-21.83412151 76.5247555 -17.3887888 76.23871673 -12.3671875 74.1171875 C-8.2274515 72.47584686 -5.73216063 71.95869825 -1.4296875 73.6796875 C2.22959542 77.93450077 5.22641075 82.2145511 6.01171875 87.84375 C5.5703125 90.6796875 5.5703125 90.6796875 3.8828125 92.47265625 C-7.09863725 99.09491565 -18.07711163 102.79055754 -31.03515625 100.1484375 C-41.53108398 96.82442596 -48.88051312 91.18258978 -54.19921875 81.4375 C-62.10909263 64.15509916 -63.05050004 42.87854208 -57.4296875 24.6796875 C-54.10823482 16.31878937 -49.9890129 8.08198729 -42.6796875 2.5546875 C-42.06609375 2.07773438 -41.4525 1.60078125 -40.8203125 1.109375 C-29.27879181 -5.79290698 -11.9664793 -6.03437845 0 0 Z M-39.4296875 4.6796875 C-40.1103125 5.22625 -40.7909375 5.7728125 -41.4921875 6.3359375 C-50.87532795 14.72389639 -56.38190805 27.14108585 -57.74536133 39.5534668 C-57.90148898 42.49897549 -57.94865777 45.4176707 -57.9296875 48.3671875 C-57.92396729 49.41156982 -57.91824707 50.45595215 -57.91235352 51.53198242 C-57.5885328 65.69395966 -53.68106184 79.60672125 -43.26171875 89.80078125 C-34.85627592 96.75950414 -27.28512492 98.68949563 -16.4296875 97.6796875 C-9.29741284 96.44644116 -3.72114246 93.63956303 1.5703125 88.6796875 C1.9003125 88.0196875 2.2303125 87.3596875 2.5703125 86.6796875 C0.2603125 83.3796875 -2.0496875 80.0796875 -4.4296875 76.6796875 C-8.45148873 77.31628529 -8.45148873 77.31628529 -12.4140625 78.22265625 C-19.55405654 79.84160839 -27.51215527 79.70650472 -33.85546875 75.86328125 C-36.33505488 73.99897704 -37.80505056 72.34873391 -39.4296875 69.6796875 C-39.9865625 68.76896484 -39.9865625 68.76896484 -40.5546875 67.83984375 C-43.56843655 61.88559649 -43.79266123 56.1600799 -43.8046875 49.6171875 C-43.80710449 48.35926392 -43.80710449 48.35926392 -43.80957031 47.07592773 C-43.64137439 37.53080933 -42.34925502 29.64654136 -35.4296875 22.6796875 C-29.74725952 18.43320784 -24.44160079 17.10494051 -17.4296875 17.6796875 C-4.88347533 21.42549905 3.04674539 31.68024593 9.27270508 42.69018555 C10.86632092 45.77414794 12.41299169 48.87734917 13.9453125 51.9921875 C18.78982735 61.55258311 23.83270856 70.34544128 30.5703125 78.6796875 C31.30636719 79.6078125 32.04242188 80.5359375 32.80078125 81.4921875 C39.19045383 89.09193967 47.4775601 96.1401151 57.5703125 97.6796875 C69.47774099 98.59901102 77.71009768 97.25148703 86.8828125 89.4296875 C97.12504031 79.53953627 102.48395154 65.23200821 102.86254883 51.00805664 C103.00266491 36.204708 99.85395412 22.75605873 91.3203125 10.4296875 C84.04697959 3.15635459 76.57298809 -0.6007166 66.1953125 -0.6328125 C57.51712091 -0.50531703 51.51675665 1.22176709 44.5703125 6.6796875 C43.9103125 7.9996875 43.2503125 9.3196875 42.5703125 10.6796875 C44.8803125 13.9796875 47.1903125 17.2796875 49.5703125 20.6796875 C53.42970225 19.76916675 53.42970225 19.76916675 56.5703125 18.6796875 C73.08098424 17.55938608 73.08098424 17.55938608 78.9609375 21.21484375 C85.0507844 26.75778692 88.50835043 34.07282463 88.90625 42.25390625 C89.10612286 53.53134783 88.9094274 63.3806708 81.7578125 72.6796875 C76.78072065 77.8169333 72.15915398 78.86351775 65.1953125 79.1796875 C57.65084438 78.95499544 52.94185906 77.02458152 47.59375 71.71875 C39.80010143 62.62098494 34.17374143 51.55470537 28.5078125 41.0546875 C27.53315856 39.26056195 26.55361048 37.46909016 25.5703125 35.6796875 C25.25803711 35.11040527 24.94576172 34.54112305 24.62402344 33.95458984 C17.1973793 20.56903171 7.2225241 5.26779024 -8.171875 0.52734375 C-18.50838802 -1.81290759 -31.00404332 -2.48211006 -39.4296875 4.6796875 Z " fill="#0D0D0D" transform="translate(228.4296875,192.3203125)"/>
</svg>
